<svg width="25" height="25" viewBox="0 0 25 25" fill="none" xmlns="http://www.w3.org/2000/svg">
<path d="M18.4766 7.85156L13.7891 12.5391L18.4375 17.1875C18.8281 17.5391 18.8281 18.125 18.4375 18.4766C18.0859 18.8672 17.5 18.8672 17.1484 18.4766L12.4609 13.8281L7.8125 18.4766C7.46094 18.8672 6.875 18.8672 6.52344 18.4766C6.13281 18.125 6.13281 17.5391 6.52344 17.1484L11.1719 12.5L6.52344 7.85156C6.13281 7.5 6.13281 6.91406 6.52344 6.52344C6.875 6.17188 7.46094 6.17188 7.85156 6.52344L12.5 11.2109L17.1484 6.5625C17.5 6.17188 18.0859 6.17188 18.4766 6.5625C18.8281 6.91406 18.8281 7.5 18.4766 7.85156Z" fill="black"/>
</svg>
