<svg width="16" height="15" viewBox="0 0 16 15" fill="none" xmlns="http://www.w3.org/2000/svg">
<path d="M0 12.5C0 11.9688 0.4375 11.5 1 11.5H2.6875C3.09375 10.625 3.96875 10 5 10C6 10 6.90625 10.625 7.28125 11.5H15C15.5312 11.5 16 11.9688 16 12.5C16 13.0625 15.5312 13.5 15 13.5H7.28125C6.90625 14.4062 6 15 5 15C3.96875 15 3.09375 14.4062 2.6875 13.5H1C0.4375 13.5 0 13.0625 0 12.5ZM4 12.5C4 13.0625 4.4375 13.5 5 13.5C5.53125 13.5 6 13.0625 6 12.5C6 11.9688 5.53125 11.5 5 11.5C4.4375 11.5 4 11.9688 4 12.5ZM10 7.5C10 8.0625 10.4375 8.5 11 8.5C11.5312 8.5 12 8.0625 12 7.5C12 6.96875 11.5312 6.5 11 6.5C10.4375 6.5 10 6.96875 10 7.5ZM11 5C12 5 12.9062 5.625 13.2812 6.5H15C15.5312 6.5 16 6.96875 16 7.5C16 8.0625 15.5312 8.5 15 8.5H13.2812C12.9062 9.40625 12 10 11 10C9.96875 10 9.09375 9.40625 8.6875 8.5H1C0.4375 8.5 0 8.0625 0 7.5C0 6.96875 0.4375 6.5 1 6.5H8.6875C9.09375 5.625 9.96875 5 11 5ZM6 3.5C6.53125 3.5 7 3.0625 7 2.5C7 1.96875 6.53125 1.5 6 1.5C5.4375 1.5 5 1.96875 5 2.5C5 3.0625 5.4375 3.5 6 3.5ZM8.28125 1.5H15C15.5312 1.5 16 1.96875 16 2.5C16 3.0625 15.5312 3.5 15 3.5H8.28125C7.90625 4.40625 7 5 6 5C4.96875 5 4.09375 4.40625 3.6875 3.5H1C0.4375 3.5 0 3.0625 0 2.5C0 1.96875 0.4375 1.5 1 1.5H3.6875C4.09375 0.625 4.96875 0 6 0C7 0 7.90625 0.625 8.28125 1.5Z" fill="black"/>
</svg>
