<svg width="25" height="25" viewBox="0 0 25 25" fill="none" xmlns="http://www.w3.org/2000/svg">
<path d="M18.75 10.625C18.75 12.4219 18.1641 14.1016 17.1875 15.4297L22.1094 20.3906C22.6172 20.8594 22.6172 21.6797 22.1094 22.1484C21.6406 22.6562 20.8203 22.6562 20.3516 22.1484L15.3906 17.1875C14.0625 18.2031 12.3828 18.75 10.625 18.75C6.13281 18.75 2.5 15.1172 2.5 10.625C2.5 6.17188 6.13281 2.5 10.625 2.5C15.0781 2.5 18.75 6.17188 18.75 10.625ZM10.625 16.25C12.6172 16.25 14.4531 15.1953 15.4688 13.4375C16.4844 11.7188 16.4844 9.57031 15.4688 7.8125C14.4531 6.09375 12.6172 5 10.625 5C8.59375 5 6.75781 6.09375 5.74219 7.8125C4.72656 9.57031 4.72656 11.7188 5.74219 13.4375C6.75781 15.1953 8.59375 16.25 10.625 16.25Z" fill="#1381A2"/>
</svg>
