<svg width="25" height="25" viewBox="0 0 25 25" fill="none" xmlns="http://www.w3.org/2000/svg">
<path d="M16.875 10.625C16.875 8.39844 15.6641 6.36719 13.75 5.23438C11.7969 4.10156 9.41406 4.10156 7.5 5.23438C5.54688 6.36719 4.375 8.39844 4.375 10.625C4.375 12.8906 5.54688 14.9219 7.5 16.0547C9.41406 17.1875 11.7969 17.1875 13.75 16.0547C15.6641 14.9219 16.875 12.8906 16.875 10.625ZM15.6641 17.0312C14.2578 18.125 12.5 18.75 10.625 18.75C6.13281 18.75 2.5 15.1172 2.5 10.625C2.5 6.17188 6.13281 2.5 10.625 2.5C15.0781 2.5 18.75 6.17188 18.75 10.625C18.75 12.5391 18.0859 14.2969 16.9922 15.7031L22.2266 20.8984C22.5781 21.2891 22.5781 21.875 22.2266 22.2266C21.8359 22.6172 21.25 22.6172 20.8984 22.2266L15.6641 17.0312Z" fill="#929BA6"/>
</svg>
